# xmcd
#
# Track frame offsets: 
#        150
#        20303
#        35647
#        52048
#        72130
#        102624
#        119512
#        139032
#        170235
#        180503
#        208098
#        228732
#        244269
#        262022
#        283695
#        304969
#
# Disc length: 4391 seconds
#
# Revision: 3
# Processed by: cddbd v1.5.2PL0 Copyright (c) Steve Scherf et al.
# Submitted via: ExactAudioCopy v1.0b1
#
DISCID=fc112510
DTITLE=Чиж and C° - Золотая коллкция
DYEAR=2000
DGENRE=Rock and Roll
TTITLE0=Hoochie-coochie man
TTITLE1=Русская (хочу чаю)
TTITLE2=В старинном городе о
TTITLE3=Вот пуля просвистела
TTITLE4=Дополнительный 38-й
TTITLE5=На поле танки грохотали
TTITLE6=Эрогенная зона
TTITLE7=Перекресток
TTITLE8=Мышка (колыбельная хиппи)
TTITLE9=Полонез
TTITLE10=О любви
TTITLE11=Солдат на привале
TTITLE12=Еду, еду
TTITLE13=ОК
TTITLE14=Бомбардировщики
TTITLE15=Сен Семилья
EXTD=RIP by pmp
EXTT0=
EXTT1=
EXTT2=
EXTT3=
EXTT4=
EXTT5=
EXTT6=
EXTT7=
EXTT8=
EXTT9=
EXTT10=
EXTT11=
EXTT12=
EXTT13=
EXTT14=
EXTT15=
PLAYORDER=
